<mxfile host="app.diagrams.net" modified="2024-06-21T05:41:28.653Z" agent="Mozilla/5.0 (Macintosh; Intel Mac OS X 10_15_7) AppleWebKit/537.36 (KHTML, like Gecko) Chrome/125.0.0.0 Safari/537.36" version="24.5.3" etag="DrhtNk9z3iLZRhxfRA7L" type="github">
  <diagram name="Page-1" id="TImWSX-t0BbQyK1LQFtf">
    <mxGraphModel>
      <root>
        <mxCell id="0" />
        <mxCell id="1" parent="0" />
      </root>
    </mxGraphModel>
  </diagram>
</mxfile>
